<svg width="96" height="96" xmlns="http://www.w3.org/2000/svg" xmlns:xlink="http://www.w3.org/1999/xlink" overflow="hidden"><defs><clipPath id="clip0"><rect x="203" y="213" width="96" height="96"/></clipPath></defs><g clip-path="url(#clip0)" transform="translate(-203 -213)"><path d="M283 279C282.948 276.495 281.773 274.145 279.8 272.6 275.4 269 269.8 266.6 264.2 265 259.922 263.69 255.474 263.017 251 263 246.531 263.077 242.092 263.75 237.8 265 232.207 266.632 226.932 269.202 222.2 272.6 220.227 274.145 219.052 276.495 219 279L219 295 283 295Z"/><path d="M248 238.75C250.6 237.22 257 232.28 257 232.28L257 232.28C258.01 232.367 258.971 232.754 259.76 233.39 261.681 234.738 263.307 236.464 264.54 238.46 265.65 240.12 266.6 241.46 266.89 241.86L266.89 241.86 267 242 267 242C267.5 241 267.48 238.21 267.13 235.67 266.64 232.17 266.24 231.13 264 229.25 262.573 227.956 260.668 227.322 258.75 227.5 256.148 225.481 253.013 224.264 249.73 224 244.73 223.82 239.27 226.43 236.95 229.49 233.44 234.09 233.83 237.09 233.83 238.16 233.83 239.23 232.6 241.09 233.46 241.09 234.02 241.09 234.57 241.09 235.13 241.09L235.13 241.09C238.3 241 244.77 240.65 248 238.75Z"/><path d="M265.42 243.17C265.37 243.1 264.27 241.57 262.93 239.58 261.829 237.775 260.369 236.216 258.64 235 258.303 234.755 257.937 234.553 257.55 234.4 255.77 235.75 251.19 239.19 249.01 240.46 245.55 242.46 239.24 242.99 235.01 243.08 235.12 251.916 242.371 258.99 251.207 258.88 259.099 258.783 265.741 252.944 266.85 245.13Z"/></g></svg>